# xmcd CD database file
#
# Track frame offsets:
#	150
#	67597
#	116937
#	156837
#	191885
#	233482
#
# Disc length: 3691 seconds
#
# Revision: 0
# Processed by: cddbd v1.5PL3 Copyright (c) Steve Scherf et al.
# Submitted via: CDex 1.50Beta7
#
DISCID=480e6906
DTITLE=AMP Stringency - Universe of Amp
DYEAR=2003
DGENRE=Jazz
TTITLE0=Still in Evolution
TTITLE1=En tres y dos
TTITLE2=To You
TTITLE3=Parts
TTITLE4=Nyogen
TTITLE5=Pararrango
EXTD=YEAR: 2003
EXTT0=
EXTT1=
EXTT2=
EXTT3=
EXTT4=
EXTT5=
PLAYORDER=
